<?xml version="1.0" encoding="UTF-8"?>
<svg version="1.1" xmlns="http://www.w3.org/2000/svg" width="1213" height="1000">
<path d="M0 0 C1.11149414 0.45810059 2.22298828 0.91620117 3.36816406 1.38818359 C43.95985714 18.21075648 82.68087938 37.83994438 120 61 C123.12162101 62.92221211 126.24787886 64.83675398 129.375 66.75 C130.07020752 67.17796875 130.76541504 67.6059375 131.48168945 68.046875 C135.39398148 70.4463537 139.33629227 72.78098628 143.31640625 75.06640625 C161.26235323 85.40077478 177.57087683 97.19601941 193 111 C194.39798828 112.23169922 194.39798828 112.23169922 195.82421875 113.48828125 C202.53398733 119.50554931 208.92859471 125.82794749 215.3125 132.1875 C216.58504639 133.45303711 216.58504639 133.45303711 217.88330078 134.74414062 C222.79525342 139.6686657 227.4909866 144.70518938 232 150 C232.87727095 151.00940428 233.75485126 152.01853981 234.6328125 153.02734375 C241.49551666 161.041003 247.97081247 169.30502128 254.30419922 177.7421875 C255.43270446 179.24469491 256.56453402 180.74471135 257.69970703 182.2421875 C278.76677667 210.05095998 297.17676652 240.08913998 313.40087891 270.96191406 C315.04941587 274.09388261 316.71772131 277.21483142 318.38671875 280.3359375 C357.97860327 354.91949602 385.68049891 436.77722127 415.203125 628.69140625 C415.20882507 629.95677719 415.21452515 631.22214813 415.22039795 632.52586365 C415.22978052 635.19232744 415.2367104 637.85868072 415.24023438 640.52514648 C415.2467111 644.50065513 415.28090425 648.47578426 415.3125 652.45117188 C415.54345438 708.21951932 405.68816269 771.24675063 365.17578125 812.90625 C342.01332159 835.87539083 311.90100641 845.46042265 279.75 845.375 C279.00678497 845.37478851 278.26356995 845.37457703 277.49783325 845.37435913 C264.83656104 845.338705 252.80800055 844.0019299 240.36328125 841.62060547 C234.43979506 840.52758123 228.48931161 839.61008959 222.53567505 838.69906616 C220.54579089 838.39172568 218.55785749 838.07183185 216.57006836 837.7512207 C195.2216509 834.44013064 173.89141899 833.62132869 152.3125 833.6875 C151.06987396 833.68932281 149.82724792 833.69114563 148.54696655 833.69302368 C127.55215854 833.7445989 106.85362475 834.60375787 86 837 C84.49252652 837.16808982 82.9850393 837.33605654 81.47753906 837.50390625 C-4.05509892 847.16533246 -87.38060847 871.08280306 -170.12670898 893.90480042 C-238.69654011 912.81250672 -307.25236562 931.31570438 -378 940 C-379.11568359 940.13873535 -380.23136719 940.2774707 -381.38085938 940.42041016 C-452.13554375 948.89154199 -527.93685828 939.94736394 -585.375 894.875 C-586.92658423 893.59526359 -588.46865713 892.30388953 -590 891 C-590.73605469 890.37480469 -591.47210937 889.74960937 -592.23046875 889.10546875 C-605.4073307 877.56191967 -617.64641121 865.1413866 -628 851 C-628.82244754 849.90719886 -629.64536382 848.81475034 -630.46875 847.72265625 C-642.64688058 831.34857765 -652.27010284 813.17758684 -662.13623047 795.36425781 C-664.03563034 791.9356843 -665.94151116 788.51076472 -667.84765625 785.0859375 C-699.6150347 727.92253977 -729.6699599 669.7628857 -754 609 C-754.45584473 607.86224121 -754.91168945 606.72448242 -755.38134766 605.55224609 C-790.40885533 517.38476995 -810.48735419 421.824937 -779 293 C-778.69288086 292.0920166 -778.38576172 291.1840332 -778.06933594 290.24853516 C-766.27442033 255.66826206 -748.456272 222.52805695 -727 193 C-726.46697266 192.25878906 -725.93394531 191.51757812 -725.38476562 190.75390625 C-717.29737504 179.52193164 -708.88543496 168.61154222 -700 158 C-699.49227051 157.39317383 -698.98454102 156.78634766 -698.46142578 156.16113281 C-691.22050858 147.54088253 -683.70046928 139.21017224 -676 131 C-675.02329346 129.95561768 -675.02329346 129.95561768 -674.02685547 128.89013672 C-671.91571384 126.63322931 -669.80216422 124.37860694 -667.6875 122.125 C-666.70088379 121.07252075 -666.70088379 121.07252075 -665.69433594 119.9987793 C-654.65978034 108.27421549 -654.65978034 108.27421549 -649.125 103.625 C-646.1153247 101.03365795 -643.28911384 98.32745217 -640.5 95.5 C-637.14743221 92.10731601 -633.70524318 88.90899316 -630.0859375 85.8046875 C-627.74974499 83.78348724 -625.47035149 81.70621161 -623.1875 79.625 C-618.87090287 75.7295343 -614.4259887 72.03141782 -609.90625 68.375 C-607.34687481 66.28346759 -604.8237174 64.15905334 -602.3112793 62.01196289 C-570.38399945 34.74104471 -535.55298574 11.78325187 -498 -7 C-497.16146484 -7.42587402 -496.32292969 -7.85174805 -495.45898438 -8.29052734 C-414.88659745 -49.0695669 -321.32204753 -61.55622434 0 0 Z M-485 -10 C-485.78922852 -9.65018066 -486.57845703 -9.30036133 -487.39160156 -8.93994141 C-524.95271929 7.76587609 -559.20793134 31.13526618 -591 57 C-591.84304688 57.680625 -592.68609375 58.36125 -593.5546875 59.0625 C-599.93215996 64.23841968 -606.18653023 69.5469639 -612.40625 74.91015625 C-614.72784405 76.91146559 -617.06034887 78.8983426 -619.40625 80.87109375 C-634.73827061 93.79436508 -648.93947841 107.84619079 -663.125 122 C-663.80770966 122.68003082 -664.49041931 123.36006165 -665.19381714 124.06069946 C-672.01543018 130.86201283 -678.78402143 137.63239518 -685 145 C-686.4132355 146.5448126 -687.82940409 148.08695325 -689.25 149.625 C-693.7992233 154.66686339 -697.9690272 159.95182698 -702.125 165.31640625 C-704.01042835 167.74704191 -705.92479527 170.14838467 -707.875 172.52734375 C-729.00040042 198.33785555 -746.64280551 226.91925001 -761 257 C-761.35416992 257.73879395 -761.70833984 258.47758789 -762.07324219 259.23876953 C-803.84502975 347.11437029 -801.80154238 442.94836412 -759.46484375 586.1953125 C-737.44212981 647.37843217 -707.91345745 706.64468456 -676.4140625 763.43359375 C-674.31990125 767.23432287 -672.2671736 771.05709351 -670.21044922 774.87817383 C-645.40796866 821.13724837 -645.40796866 821.13724837 -614 863 C-613.4225 863.68835938 -612.845 864.37671875 -612.25 865.0859375 C-602.40498699 876.75227792 -591.2983082 886.99163991 -579 896 C-577.94167969 896.77988281 -576.88335938 897.55976562 -575.79296875 898.36328125 C-567.55382421 904.24548185 -558.95129725 909.28845384 -550 914 C-549.36175293 914.3388623 -548.72350586 914.67772461 -548.06591797 915.02685547 C-515.02216124 932.30336926 -476.98039688 939.02297498 -440 940 C-439.24493164 940.02191406 -438.48986328 940.04382813 -437.71191406 940.06640625 C-347.32946083 942.31007493 -257.31342478 914.92368739 -152.96920013 886.15876389 C-122.72129563 877.80472804 -92.44111558 869.62750187 -62 862 C-60.61971619 861.65316162 -60.61971619 861.65316162 -59.21154785 861.29931641 C-4.18784463 847.49241316 51.43040978 836.75038443 108 832 C109.24426758 831.8954248 110.48853516 831.79084961 111.77050781 831.68310547 C124.45686241 830.75754136 137.16062782 830.75648065 149.875 830.75 C151.06875244 830.74932526 152.26250488 830.74865051 153.49243164 830.74795532 C183.59464592 830.77488443 212.39103335 833.64686465 242 839 C278.29448124 845.47418475 316.00394763 844.94655066 347.5390625 823.4921875 C384.06694072 797.70172968 400.2518226 755.03864499 407.75 712.4375 C411.81004583 688.20326445 413.56489828 663.57581734 413 639 C412.97317139 637.69844971 412.97317139 637.69844971 412.94580078 636.37060547 C411.32876334 566.12980386 397.46631629 495.7669358 376 429 C375.77977173 428.31329224 375.55954346 427.62658447 375.3326416 426.91906738 C354.5630616 362.23895428 328.07874248 299.29217739 293 241 C291.82405208 239.0248388 290.64827207 237.04957763 289.47265625 235.07421875 C282.08602526 222.73190957 274.31033765 210.73932393 266 199 C265.45456543 198.22785156 264.90913086 197.45570313 264.34716797 196.66015625 C251.60413561 178.67703339 237.95454908 161.65851554 223.12890625 145.34765625 C221.70911802 143.78198152 220.30020415 142.20637677 218.90234375 140.62109375 C210.22388625 130.80860913 201.0299702 121.43555719 191 113 C190.10667969 112.21753906 189.21335937 111.43507812 188.29296875 110.62890625 C172.99899705 97.30324521 156.56869769 86.09819582 139 76 C132.83272596 72.44309495 126.72294285 68.84407759 120.72729492 65.00463867 C98.8561239 51.01480712 76.18705117 38.6362576 53 27 C51.46520996 26.2255957 51.46520996 26.2255957 49.89941406 25.43554688 C18.96159471 9.91038662 -13.28006107 -2.78558237 -46 -14 C-46.98335327 -14.33874146 -46.98335327 -14.33874146 -47.98657227 -14.68432617 C-129.99127192 -42.90288995 -217.71715392 -57.80648323 -485 -10 Z " fill="#A0CEE1" transform="translate(798,57)"/>
<path d="M0 0 C0.73730347 0.09710266 1.47460693 0.19420532 2.23425293 0.29425049 C81.71401457 10.77092041 158.03539405 35.57882946 290.7578125 106.96875 C294.41022915 109.25701104 298.15437313 111.31389794 301.9375 113.375 C310.16463876 117.8897356 317.59253344 123.25815711 325 129 C325.88042969 129.67804688 326.76085937 130.35609375 327.66796875 131.0546875 C330.14327751 133.0010151 332.57552586 134.99072632 335 137 C336.51207031 138.23363281 336.51207031 138.23363281 338.0546875 139.4921875 C345.37648878 145.55491468 352.21299096 152.03200254 358.9375 158.75 C359.73019287 159.54188721 360.52288574 160.33377441 361.33959961 161.1496582 C366.08864484 165.94382262 370.61711297 170.87025638 375 176 C375.87746581 177.00923489 376.75505957 178.01835856 377.6328125 179.02734375 C398.56917898 203.47498172 416.80391003 230.20943867 433 258 C433.65403809 259.1130249 433.65403809 259.1130249 434.32128906 260.24853516 C478.1797442 335.02735356 509.04235347 419.00390136 532 549 C532.13791962 550.0703952 532.13791962 550.0703952 532.27862549 551.16241455 C536.88833822 587.37187271 537.92909673 625.92494968 532 662 C531.83902832 663.0297998 531.67805664 664.05959961 531.51220703 665.12060547 C526.81624905 694.28426381 517.40777878 724.16532322 498 747 C496.83210938 748.40958984 496.83210938 748.40958984 495.640625 749.84765625 C477.14444212 771.25963866 451.42832104 781.10564225 423.73876953 783.16845703 C404.20523737 784.21779715 384.50615524 780.2812166 365.38183594 776.80200195 C345.77962085 773.3529598 326.18136238 772.62198958 306.3125 772.6875 C304.57978851 772.69023422 304.57978851 772.69023422 302.81207275 772.69302368 C283.06395537 772.74520083 263.5982794 773.5781605 244 776 C243.30440979 776.08485657 242.60881958 776.16971313 241.89215088 776.25714111 C166.30211867 785.54391034 92.90756091 806.41566017 19.66894531 826.60253906 C-44.71877546 844.34276609 -44.71877546 844.34276609 -73.8125 850.75 C-74.83519989 850.97712677 -75.85789978 851.20425354 -76.91159058 851.43826294 C-112.68460498 859.3714734 -149.48061855 867.0396774 -186.265625 867.203125 C-187.30152771 867.20882507 -188.33743042 867.21452515 -189.40472412 867.22039795 C-191.5862122 867.22977532 -193.76771397 867.23635269 -195.94921875 867.24023438 C-199.20078979 867.24985441 -202.45170384 867.28091364 -205.703125 867.3125 C-253.69118734 867.55534513 -303.07844157 854.95134864 -340 823 C-340.75796875 822.35160156 -341.5159375 821.70320312 -342.296875 821.03515625 C-344.91409249 818.73867619 -347.46347109 816.3854614 -350 814 C-350.55848633 813.4755127 -351.11697266 812.95102539 -351.69238281 812.41064453 C-372.80132948 792.42016545 -387.24340271 768.60280081 -401.171875 743.30908203 C-402.96590135 740.06172183 -404.77675136 736.82439759 -406.59375 733.58984375 C-430.94666112 690.18112365 -454.63186361 645.87634047 -474 600 C-474.46470703 598.90429688 -474.92941406 597.80859375 -475.40820312 596.6796875 C-499.93974159 538.50586037 -520.28664621 476.66537118 -522 413 C-522.02191406 412.19771973 -522.04382813 411.39543945 -522.06640625 410.56884766 C-523.95957118 327.19070903 -491.95020453 247.58126054 -437.52734375 184.9296875 C-435.03670312 182.04254613 -432.63817759 179.09713333 -430.25 176.125 C-427.26039856 172.44917332 -424.17380094 169.0406425 -420.7590332 165.76000977 C-419.1048999 164.10495814 -417.60447592 162.39818556 -416.09765625 160.609375 C-411.25930698 155.04361287 -406.02461365 149.875086 -400.80297852 144.67260742 C-399.066064 142.941053 -397.33456111 141.20421641 -395.60351562 139.46679688 C-390.43168075 134.29185696 -385.2545747 129.18892178 -379.68383789 124.4387207 C-377.11354096 122.24258328 -374.66126976 119.92923869 -372.1875 117.625 C-367.53961458 113.3312462 -362.75583652 109.2646816 -357.82421875 105.296875 C-355.33755365 103.27452496 -352.89677635 101.20810501 -350.4675293 99.11743164 C-326.12029156 78.21157873 -299.36043424 59.99931201 -271 45 C-270.17725586 44.56333008 -269.35451172 44.12666016 -268.50683594 43.67675781 C-224.50752911 20.51835039 -177.01059969 7.08422334 -128 0 C-126.79263184 -0.17934082 -125.58526367 -0.35868164 -124.34130859 -0.54345703 C-84.28817177 -6.19319912 -40.03182286 -5.41852788 0 0 Z M-252 39 C-252.76634766 39.36577148 -253.53269531 39.73154297 -254.32226562 40.10839844 C-258.28579384 42.01497366 -262.21072472 43.98559264 -266.11083984 46.01855469 C-268.09463788 47.04916571 -270.08790205 48.05985344 -272.08203125 49.0703125 C-308.40228593 67.66463044 -341.35738342 93.93367628 -371.26953125 121.515625 C-373.43947085 123.48999064 -375.63021612 125.426914 -377.84375 127.3515625 C-381.86816364 130.86329693 -385.79462925 134.4684144 -389.6875 138.125 C-390.37448975 138.77025635 -391.06147949 139.4155127 -391.76928711 140.08032227 C-400.19447466 148.02863077 -408.64955003 156.02125905 -416.14453125 164.8671875 C-418.10684394 167.1228143 -420.14677717 169.2966031 -422.19702148 171.47216797 C-427.90247862 177.54447497 -433.16562616 183.83032841 -438.23828125 190.4375 C-440.04559511 192.79001914 -441.89238984 195.097212 -443.79296875 197.375 C-457.26489569 213.59452117 -468.81487534 231.55320768 -479 250 C-479.46325684 250.83225098 -479.92651367 251.66450195 -480.40380859 252.52197266 C-501.066743 289.93569551 -513.6828099 330.48169746 -518 373 C-518.13148438 374.258125 -518.26296875 375.51625 -518.3984375 376.8125 C-525.59269852 462.36587426 -495.50129965 546.69439634 -430.47167969 683.25244141 C-428.65552445 686.64312007 -426.86288251 690.04603914 -425.0703125 693.44921875 C-417.63353567 707.5531288 -410.10078984 721.5803778 -402.17578125 735.41796875 C-399.92196136 739.35636283 -397.71920731 743.31899879 -395.54296875 747.30078125 C-383.29058029 769.65859863 -369.47686113 789.45156491 -352 808 C-351.27167969 808.78246094 -350.54335938 809.56492187 -349.79296875 810.37109375 C-343.43733292 816.98614329 -336.35451786 822.55133665 -329 828 C-328.16202881 828.62841797 -328.16202881 828.62841797 -327.30712891 829.26953125 C-273.05275321 869.42254938 -200.42098523 869.12793745 -136.57409668 859.82104492 C-77.9484755 851.04764432 -20.50729891 834.89005838 36.5 819 C111.49218463 798.09789894 187.16523869 777.59461918 265 771 C266.09666992 770.90428711 267.19333984 770.80857422 268.32324219 770.70996094 C307.97738457 767.63420177 347.34528901 770.19336008 386.38667297 777.3187561 C418.16322523 783.0982698 450.42212797 780.77037137 477.7421875 762.12890625 C480.27253472 760.18466182 482.64100656 758.14897177 485 756 C485.96550781 755.12730469 486.93101562 754.25460937 487.92578125 753.35546875 C519.81940392 723.54396765 530.57087464 674.01120463 532.10687256 632.08267212 C532.16284741 629.11339201 532.19024164 626.14555821 532.203125 623.17578125 C532.21018463 622.08372375 532.21724426 620.99166626 532.22451782 619.86651611 C532.34487007 595.73920481 532.22065277 571.94289002 529 548 C528.90289734 547.26360291 528.80579468 546.52720581 528.70574951 545.76849365 C525.41501436 520.90494389 520.77092235 496.40311868 515 472 C514.84229126 471.33133911 514.68458252 470.66267822 514.52209473 469.97375488 C494.74317058 386.48402249 461.06788055 304.8372184 365 170 C364.09985442 168.99515521 363.20013593 167.98992772 362.30078125 166.984375 C351.14383206 154.59533524 339.07963772 143.3441825 325.75048828 133.32226562 C323.99604954 131.99701594 322.26154659 130.64845445 320.52734375 129.296875 C312.69473536 123.28197416 304.51023038 118.2824103 295.88916016 113.47412109 C290.38825754 110.39848596 285.05936485 107.17702626 279.8125 103.6875 C260.07390598 90.6669621 239.1195281 79.58721718 218 69 C217.02498535 68.51047852 216.0499707 68.02095703 215.04541016 67.51660156 C190.45819703 55.2589474 164.8838765 45.16054889 139 36 C137.84516113 35.59040039 136.69032227 35.18080078 135.50048828 34.75878906 C60.16652138 8.27976269 -20.71402074 -5.29504692 -252 39 Z " fill="#A0CEE1" transform="translate(600,68)"/>
<path d="M0 0 C0.66805664 0.0825 1.33611328 0.165 2.02441406 0.25 C62.84195575 7.82669422 122.06848514 26.11501949 177.57861328 51.87744141 C179.22314993 52.63985112 180.87005599 53.39716648 182.51904297 54.14990234 C196.80134837 60.67391839 210.43482987 68.10180052 224 76 C225.1758667 76.6811084 225.1758667 76.6811084 226.37548828 77.37597656 C236.61624292 83.3120589 246.73706924 89.44194813 256.81103516 95.65625 C258.93374235 96.95932611 261.06523571 98.24674575 263.19921875 99.53125 C272.34738919 105.07857976 280.7658685 111.17508129 289 118 C289.84594727 118.69150146 289.84594727 118.69150146 290.70898438 119.39697266 C303.48216629 129.86530162 315.27777567 141.43875826 326 154 C326.54487061 154.63808594 327.08974121 155.27617187 327.65112305 155.93359375 C336.66011594 166.5687441 345.04936715 177.55408893 353 189 C353.49177734 189.70672852 353.98355469 190.41345703 354.49023438 191.14160156 C406.34862647 266.15971616 440.39057385 355.06197138 460.25 466.5625 C460.40122314 467.59439453 460.55244629 468.62628906 460.70825195 469.68945312 C463.27286989 488.23695543 464.35144378 506.63938479 464.31567383 525.35766602 C464.31251211 528.79931334 464.33610011 532.24009835 464.36132812 535.68164062 C464.41792056 555.22884273 463.1472924 574.876941 458.25 593.875 C457.99250977 594.90052979 457.73501953 595.92605957 457.46972656 596.98266602 C449.94914162 625.99740773 436.56366648 652.56872581 410.6875 669.25 C395.50042031 678.18462115 379.27947549 681.59266548 361.8125 681.5625 C359.84518921 681.5632251 359.84518921 681.5632251 357.83813477 681.56396484 C345.74585668 681.42858247 334.01693442 679.58797406 322.16137695 677.31079102 C303.09684484 673.66565512 284.07229377 672.61256408 264.6875 672.6875 C263.19905579 672.69023422 263.19905579 672.69023422 261.68054199 672.69302368 C243.62299475 672.74837401 225.9203527 673.73909371 208 676 C207.33514587 676.0825 206.67029175 676.165 205.98529053 676.25 C140.7985101 684.36931515 77.32903989 702.77714778 14.14844227 720.17942715 C-5.69321479 725.64407454 -25.55574687 730.98547305 -45.51953125 735.98828125 C-46.40962639 736.21225901 -47.29972153 736.43623676 -48.21678925 736.66700172 C-89.41537789 747.0101449 -131.64574359 755.21878499 -174.25 755.25 C-175.0839328 755.25067474 -175.9178656 755.25134949 -176.77706909 755.25204468 C-222.33420729 755.19381461 -267.68239018 743.87843715 -301.76171875 712.0859375 C-303.85454366 710.13555617 -306.00298541 708.28368633 -308.1875 706.4375 C-330.9440458 686.5616838 -344.76103593 656.98971278 -359 631 C-359.84546387 629.45989258 -359.84546387 629.45989258 -360.70800781 627.88867188 C-369.38828712 612.05476963 -377.78200758 596.07839291 -386 580 C-386.30677673 579.40082764 -386.61355347 578.80165527 -386.92962646 578.18432617 C-401.47767645 549.75960192 -414.52385597 520.80229304 -426 491 C-426.61053223 489.42436279 -426.61053223 489.42436279 -427.23339844 487.81689453 C-437.26365206 461.71553463 -445.0720843 434.52979064 -450 407 C-450.15017578 406.18789063 -450.30035156 405.37578125 -450.45507812 404.5390625 C-458.72081639 359.31843164 -456.46470135 312.94649333 -443 269 C-442.74911621 268.17999512 -442.49823242 267.35999023 -442.23974609 266.51513672 C-427.92156913 220.77984092 -400.31660614 180.68221649 -368.30541992 145.54052734 C-366.84808549 143.93457351 -365.3978856 142.32209045 -363.95776367 140.70068359 C-358.47682325 134.53550082 -352.78321077 128.63137506 -346.9375 122.8125 C-346.09123047 121.96236328 -345.24496094 121.11222656 -344.37304688 120.23632812 C-339.96371477 115.8337953 -335.48873189 111.57799141 -330.76245117 107.51733398 C-328.35224729 105.44233507 -326.02343776 103.28292695 -323.6875 101.125 C-319.27781527 97.1074213 -314.76577023 93.27334396 -310.12109375 89.53125 C-307.77711049 87.64195502 -305.46463263 85.71852648 -303.16015625 83.78125 C-268.3468292 54.59539488 -228.99008013 31.83180688 -186 17 C-185.17338867 16.71431152 -184.34677734 16.42862305 -183.49511719 16.13427734 C-124.89384804 -3.82866014 -61.19870371 -7.66106022 0 0 Z M-114 3 C-115.80936035 3.25740967 -115.80936035 3.25740967 -117.65527344 3.52001953 C-188.28893421 13.9171606 -251.88985838 44.15961201 -305.9296875 90.3984375 C-308.67734045 92.74257701 -311.48800228 94.99883316 -314.3125 97.25 C-321.18414884 102.84505806 -327.54018459 108.98267261 -333.96240234 115.08007812 C-335.90375032 116.90930895 -337.86272851 118.71657166 -339.83203125 120.515625 C-349.02466673 128.93082753 -357.595356 137.80107654 -366 147 C-366.86625 147.93972656 -367.7325 148.87945312 -368.625 149.84765625 C-390.65395583 173.98007141 -409.02586535 201.00229191 -424 230 C-424.56992676 231.09876465 -424.56992676 231.09876465 -425.15136719 232.21972656 C-461.93729119 304.06246662 -457.13645976 386.93715795 -433.14491272 461.88534546 C-420.0275777 502.2748816 -402.24529722 540.74663585 -383.3125 578.6875 C-382.79119507 579.73387634 -382.26989014 580.78025269 -381.73278809 581.8583374 C-374.8751771 595.59866992 -367.75153892 609.16293936 -360.3230896 622.60305786 C-358.78180423 625.39528889 -357.25377798 628.19456927 -355.72784424 630.99520874 C-340.47146652 659.52667449 -340.47146652 659.52667449 -322 686 C-321.34257812 686.85980469 -320.68515625 687.71960938 -320.0078125 688.60546875 C-291.46474428 725.06519928 -251.43005548 744.98360131 -206 751 C-204.97507446 751.14356934 -204.97507446 751.14356934 -203.92944336 751.29003906 C-178.48903479 754.37104785 -151.24943129 752.66395533 -126 749 C-125.33838867 748.90525391 -124.67677734 748.81050781 -123.99511719 748.71289062 C-99.04362232 745.12325385 -74.49711191 739.90602114 -50 734 C-48.83177704 733.71890381 -48.83177704 733.71890381 -47.63995361 733.43212891 C-22.55814639 727.376138 2.29287354 720.46305764 27.15826416 713.58511353 C160.81890048 676.61558225 160.81890048 676.61558225 228 671 C229.12116211 670.90501221 230.24232422 670.81002441 231.39746094 670.7121582 C242.09861366 669.89806591 252.77239226 669.79742692 263.5 669.8125 C264.8982753 669.81440338 264.8982753 669.81440338 266.32479858 669.81634521 C287.72873103 669.87181423 308.05686139 671.93810863 329.13943481 675.47369385 C357.83327059 680.2697692 387.26218699 681.65258034 412.45703125 664.30859375 C414.6987236 662.60154694 416.85269972 660.82378988 419 659 C419.65355469 658.49082031 420.30710937 657.98164062 420.98046875 657.45703125 C447.23669549 636.23193778 456.61440548 597.6818655 460.25 565.75 C468.18211306 487.91117751 449.83626484 408.64289918 352 193 C351.56880859 192.37593262 351.13761719 191.75186523 350.69335938 191.10888672 C338.46782207 173.49829132 324.77855318 157.19178175 310.1875 141.5 C309.58969727 140.85369629 308.99189453 140.20739258 308.37597656 139.54150391 C304.73839999 135.66817706 300.9420684 132.09807275 296.90893555 128.63916016 C295.21033252 127.18060782 293.54788933 125.69291233 291.89453125 124.18359375 C279.09010545 112.68117239 264.60534186 103.36412529 249.5703125 95.046875 C245.18575338 92.58352725 240.98203837 89.83897841 236.75 87.125 C227.70018471 81.35324093 218.46120424 76.06443771 209 71 C207.70932617 70.30438965 207.70932617 70.30438965 206.39257812 69.59472656 C143.88987023 36.01017749 76.00598169 13.60267796 5.75 3.6875 C4.70674561 3.54014404 3.66349121 3.39278809 2.58862305 3.2409668 C-17.25077794 0.63007654 -37.06300897 -0.38152637 -57.0625 -0.3125 C-58.16974426 -0.31067719 -59.27698853 -0.30885437 -60.41778564 -0.30697632 C-78.4462149 -0.25725635 -96.13186258 0.42696813 -114 3 Z " fill="#A0CEE1" transform="translate(602,124)"/>
<path d="M0 0 C4.32143432 2.71621344 8.69972297 5.32075968 13.10253906 7.90234375 C22.00277631 13.1365871 30.23252787 18.6280575 38.1796875 25.23046875 C38.73817383 25.6888916 39.29666016 26.14731445 39.87207031 26.61962891 C51.52405632 36.21060903 62.54724542 46.58880562 72.1796875 58.23046875 C72.61684082 58.74851074 73.05399414 59.26655273 73.50439453 59.80029297 C92.02175333 81.77260905 107.63511158 105.92097004 121.1796875 131.23046875 C121.64874512 132.10155273 122.11780273 132.97263672 122.60107422 133.87011719 C161.06294005 205.51849897 185.92534476 286.71875471 189.1796875 368.23046875 C189.23165283 369.52476807 189.23165283 369.52476807 189.28466797 370.84521484 C189.45778757 375.98611421 189.40400273 381.09208502 189.1796875 386.23046875 C189.13859863 387.17744629 189.09750977 388.12442383 189.05517578 389.10009766 C187.47117858 421.42274978 181.89280612 457.44450242 159.1796875 482.23046875 C158.50550781 482.99617187 157.83132813 483.761875 157.13671875 484.55078125 C144.22982734 498.4215753 126.13994577 505.40820306 107.4453125 506.63671875 C91.88345286 507.11354889 76.86570263 504.60947676 61.57771301 502.04226685 C-22.52334405 488.00204319 -110.25581854 516.26510472 -190.43444824 538.36377716 C-348.6794443 581.97589346 -348.6794443 581.97589346 -412.8203125 561.23046875 C-413.51801758 561.00488281 -414.21572266 560.77929688 -414.93457031 560.546875 C-464.878575 543.95355951 -489.98041228 503.13703708 -513.62109375 459.15625 C-515.61422885 455.45163796 -517.62809656 451.76066675 -519.67578125 448.0859375 C-552.11123412 389.75267109 -581.0964854 326.7657557 -590.8203125 260.23046875 C-590.93890625 259.43350586 -591.0575 258.63654297 -591.1796875 257.81542969 C-600.42127389 192.71175414 -580.68785942 129.09620187 -541.7578125 76.98046875 C-534.43368896 67.29294029 -526.76478129 58.02423522 -518.5 49.12890625 C-516.11226359 46.54625258 -513.77397606 43.92870882 -511.4453125 41.29296875 C-504.0606195 33.07302322 -496.25964778 25.11646097 -487.83203125 17.9609375 C-485.33747647 15.81513601 -482.92812268 13.58461198 -480.5078125 11.35546875 C-475.10515292 6.43452779 -469.51583522 1.806295 -463.8203125 -2.76953125 C-462.71153952 -3.68144114 -461.60349936 -4.59424259 -460.49609375 -5.5078125 C-378.26656929 -72.93375728 -271.69117827 -88.84372526 0 0 Z M-396.8203125 -42.76953125 C-397.66899902 -42.35477539 -398.51768555 -41.94001953 -399.39208984 -41.51269531 C-417.30177829 -32.66602148 -434.1268736 -22.13909504 -449.8203125 -9.76953125 C-450.64144531 -9.12886719 -451.46257812 -8.48820312 -452.30859375 -7.828125 C-462.06663111 -0.12441129 -471.51448642 7.98892269 -480.8203125 16.23046875 C-481.5019043 16.82794922 -482.18349609 17.42542969 -482.88574219 18.04101562 C-489.84735739 24.21133612 -496.46731254 30.69128892 -503.04321289 37.26806641 C-504.87822972 39.10089144 -506.721125 40.92553885 -508.56445312 42.75 C-515.45131676 49.60456274 -521.79866066 56.59484149 -527.8203125 64.23046875 C-529.37981435 66.04554905 -530.94165062 67.85863201 -532.5078125 69.66796875 C-544.70483384 84.34221458 -554.89371416 100.39287307 -563.8203125 117.23046875 C-564.26358887 118.06626465 -564.70686523 118.90206055 -565.16357422 119.76318359 C-581.91576612 151.88665191 -590.31518898 187.5750639 -590.1328125 223.73046875 C-590.13065735 224.50938477 -590.1285022 225.28830078 -590.12628174 226.09082031 C-589.83152882 293.01506699 -562.81690015 355.2356842 -533.8203125 414.23046875 C-533.29405273 415.30490234 -532.76779297 416.37933594 -532.22558594 417.48632812 C-525.64502712 430.89813372 -518.7525776 444.09824146 -511.50976562 457.16357422 C-509.97267466 459.95388298 -508.45198709 462.75254835 -506.93803406 465.5554657 C-483.95818216 508.09025595 -456.8631702 544.93300263 -408.6328125 559.66796875 C-334.1468626 581.17457855 -250.94547342 551.94644279 -179.05354309 532.28782654 C-9.82096892 486.01500942 -9.82096892 486.01500942 69.23730469 500.16137695 C95.6421967 504.88508121 121.83027324 506.72142978 144.9921875 490.85546875 C169.65361573 473.26429694 178.73554997 444.05091409 183.67480469 415.42626953 C196.94380385 331.43632802 168.96352302 238.05870912 129.1796875 153.23046875 C128.76009766 152.34746094 128.34050781 151.46445312 127.90820312 150.5546875 C111.29046385 115.71363027 89.86305821 83.05431016 64.1796875 54.23046875 C63.66486816 53.65248535 63.15004883 53.07450195 62.61962891 52.47900391 C56.80229378 45.98427082 50.90303439 39.80089514 44.1796875 34.23046875 C42.76816406 32.98716797 42.76816406 32.98716797 41.328125 31.71875 C30.83763343 22.51676446 19.5298501 14.97442026 7.35498047 8.18530273 C3.41247986 5.97690954 -0.36594302 3.59987134 -4.1328125 1.10546875 C-72.25416396 -43.40074217 -159.35720321 -72.06271215 -254.2578125 -73.95703125 C-255.04399963 -73.95609467 -255.83018677 -73.95515808 -256.64019775 -73.95419312 C-305.06110832 -73.82998045 -353.1963989 -64.16862973 -396.8203125 -42.76953125 Z " fill="#A0CEE1" transform="translate(808.8203125,253.76953125)"/>
<path d="M0 0 C0.85598785 -0.00067474 1.71197571 -0.00134949 2.59390259 -0.00204468 C66.51859513 0.07738332 127.76594073 18.93528809 184.5625 47.25 C185.37090332 47.6521875 186.17930664 48.054375 187.01220703 48.46875 C197.13262286 53.54769534 206.67808688 59.34918126 216.1953125 65.4765625 C219.65027827 67.69348653 223.16060535 69.75589186 226.75 71.75 C239.65738135 79.19517947 250.89497145 88.92950562 261.5625 99.25 C262.57376953 100.20132813 262.57376953 100.20132813 263.60546875 101.171875 C268.25911029 105.64448243 272.25969361 110.62105577 276.28076172 115.66064453 C277.61841156 117.31933033 278.9807114 118.9552388 280.34765625 120.58984375 C309.84916257 156.18052394 330.14156163 200.01231059 345.5625 243.25 C345.89846191 244.17474121 346.23442383 245.09948242 346.58056641 246.05224609 C368.28646536 306.13239645 385.39785793 385.07093923 358.36694336 445.73168945 C355.50119951 451.78210795 351.77928764 457.05943872 347.5625 462.25 C346.93859375 463.08144531 346.3146875 463.91289063 345.671875 464.76953125 C335.7662005 476.4178707 320.37007763 483.19548805 305.32080078 484.43457031 C293.82583217 485.08184624 282.94873338 483.87710283 271.65161133 481.82299805 C203.28025404 469.47214938 134.00032287 489.44876812 68.51032066 507.37932682 C-10.68037551 529.0561519 -10.68037551 529.0561519 -39.4375 533.25 C-40.45602051 533.40645996 -41.47454102 533.56291992 -42.52392578 533.72412109 C-83.02150277 539.7984455 -126.89417518 538.67977 -161.59765625 514.44921875 C-166.85867163 510.37500739 -171.65171404 505.86510886 -176.4375 501.25 C-177.14519531 500.60546875 -177.85289062 499.9609375 -178.58203125 499.296875 C-191.09845283 487.57069592 -199.31168164 472.12968133 -207.4375 457.25 C-207.99872559 456.22374512 -208.55995117 455.19749023 -209.13818359 454.14013672 C-213.28522325 446.53510756 -217.37241394 438.89908989 -221.4375 431.25 C-221.953125 430.28336426 -222.46875 429.31672852 -223 428.32080078 C-257.33988789 363.83290585 -293.62614649 286.02737942 -276.4375 211.25 C-276.27121094 210.48880859 -276.10492188 209.72761719 -275.93359375 208.94335938 C-267.54330211 171.31134761 -247.74805461 136.92481306 -221.703125 108.7265625 C-219.84832387 106.69907299 -218.05268508 104.641698 -216.26171875 102.55859375 C-212.04596526 97.72834824 -207.54264301 93.20849419 -203 88.6875 C-202.19240234 87.87603516 -201.38480469 87.06457031 -200.55273438 86.22851562 C-195.67649947 81.36013928 -190.67040659 76.73026172 -185.4375 72.25 C-184.38921069 71.32451619 -183.34225808 70.39751531 -182.296875 69.46875 C-130.83184807 24.22939775 -68.51355778 0.04888795 0 0 Z M-45.4375 6.25 C-46.43797363 6.42160645 -47.43844727 6.59321289 -48.46923828 6.77001953 C-92.82312373 14.67446257 -133.70638222 33.56174848 -168.4375 62.25 C-169.27837158 62.94440186 -169.27837158 62.94440186 -170.13623047 63.65283203 C-177.39498266 69.67578634 -184.47378376 75.8880864 -191.4375 82.25 C-192.42688778 83.14604931 -193.41648013 84.04187277 -194.40625 84.9375 C-203.23884226 92.95200068 -211.70657717 101.15755837 -219.4375 110.25 C-220.25992188 111.19488281 -221.08234375 112.13976562 -221.9296875 113.11328125 C-237.50356471 131.10147396 -250.3710785 150.67504135 -260.4375 172.25 C-260.96988281 173.3740625 -261.50226563 174.498125 -262.05078125 175.65625 C-287.24222273 231.37685441 -277.30650166 293.20588867 -256.81298828 348.64013672 C-248.90611756 369.39111125 -239.25492681 389.35474512 -229.4375 409.25 C-228.54141399 411.08190767 -227.64555936 412.91392856 -226.75 414.74609375 C-221.15416837 426.13102138 -215.18263955 437.29458466 -209.02587891 448.38525391 C-207.94585901 450.33314101 -206.87016797 452.28343323 -205.79833984 454.23583984 C-186.87414283 488.69756447 -163.64723774 517.20158858 -124.38720703 528.71826172 C-66.19838498 544.58794046 -1.78349743 523.69347428 54.34765625 508.1796875 C55.31967137 507.91103787 55.31967137 507.91103787 56.31132317 507.63696098 C58.30074319 507.08704507 60.29014302 506.53705616 62.27954102 505.98706055 C167.90911443 476.78624583 167.90911443 476.78624583 221.5625 475.25 C223.35494141 475.188125 223.35494141 475.188125 225.18359375 475.125 C241.65874893 474.83112878 258.10636106 476.53402311 274.3125 479.375 C294.86705505 482.89369371 315.61045146 483.58346846 333.5625 471.25 C354.61476576 454.81745088 363.23681849 429.95498642 366.5625 404.25 C367.64620923 395.28933013 367.80505144 386.32777903 367.8125 377.3125 C367.81317474 376.57078552 367.81384949 375.82907104 367.81454468 375.06488037 C367.6888813 287.16393319 331.85171361 184.16008416 266.24609375 109.0859375 C264.02133008 106.7348772 261.90028987 104.34626148 259.8125 101.875 C256.36908701 97.92327367 252.5979441 94.58613821 248.5625 91.25 C248.06282715 90.82203125 247.5631543 90.3940625 247.04833984 89.953125 C238.27670412 82.44709995 229.17397276 76.44654705 219.1015625 70.82421875 C215.23499879 68.66198509 211.55863363 66.33523706 207.875 63.875 C163.2046407 34.50152146 109.68822422 16.40228775 57.25 7.5 C56.0837207 7.30124268 54.91744141 7.10248535 53.71582031 6.89770508 C36.48772242 4.10728906 19.38291003 2.86423369 1.9375 2.9375 C1.02695862 2.93932281 0.11641724 2.94114563 -0.82171631 2.94302368 C-15.86929856 2.99346379 -30.57736929 3.69478544 -45.4375 6.25 Z " fill="#A0CEE1" transform="translate(561.4375,231.75)"/>
<path d="M0 0 C2.47821988 1.60995995 5.00419636 3.14223619 7.51953125 4.69335938 C16.65451458 10.53756396 24.7222595 17.69606352 32.64453125 25.06835938 C33.31097656 25.68066406 33.97742188 26.29296875 34.6640625 26.92382812 C49.45517856 41.05220578 61.409519 59.4632135 71.53369141 77.13623047 C72.67369917 79.11909232 73.83670604 81.08736713 75 83.05664062 C100.42987853 126.7548464 118.12869534 180.43591372 121.64453125 231.06835938 C121.7101123 231.96586914 121.77569336 232.86337891 121.84326172 233.78808594 C123.93796307 264.39986061 123.09974427 299.6952799 102.546875 324.61132812 C92.33225513 335.36640408 79.8503582 340.96634464 65.04003906 341.35961914 C56.47082782 341.44445316 48.34583063 340.54252003 39.89453125 339.13085938 C12.03289036 334.54697525 -15.33852544 336.16280127 -43.10546875 340.69335938 C-44.10250824 340.85192917 -44.10250824 340.85192917 -45.11968994 341.01370239 C-74.0362856 345.68834454 -102.41499871 353.82149475 -130.60546875 361.63085938 C-257.09799787 396.65998728 -257.09799787 396.65998728 -303.76953125 371.16992188 C-308.94932533 368.20024639 -313.72789691 364.83950657 -318.35546875 361.06835938 C-319.19464844 360.39289063 -320.03382813 359.71742188 -320.8984375 359.02148438 C-339.07181521 343.58115727 -349.36575644 320.7183571 -360.35546875 300.06835938 C-360.8757666 299.09237793 -361.39606445 298.11639648 -361.93212891 297.11083984 C-393.48138562 237.77177074 -422.8480598 170.70076606 -402.89331055 102.74267578 C-392.2646124 68.62720949 -370.4432486 40.94456247 -345.48046875 16.00585938 C-344.60132813 15.12752441 -343.7221875 14.24918945 -342.81640625 13.34423828 C-336.91622629 7.49969981 -330.92154075 2.15243393 -324.35546875 -2.93164062 C-322.39360317 -4.59414797 -320.43543865 -6.26102998 -318.48046875 -7.93164062 C-231.36879987 -80.39423553 -109.75563545 -60.86864307 0 0 Z M-332.21875 8.11523438 C-334.12459222 9.8573205 -336.07050177 11.52790751 -338.04296875 13.19335938 C-348.39574691 22.24151915 -357.95223915 32.19267115 -366.35546875 43.06835938 C-367.14050781 44.03644531 -367.92554688 45.00453125 -368.734375 46.00195312 C-396.84236083 80.95420028 -410.05198516 123.12574574 -405.89453125 167.81445312 C-399.81964472 221.27056635 -373.49718318 272.80111889 -346.69677734 318.74853516 C-345.46918603 320.87168272 -344.27350355 323.00820491 -343.09375 325.15820312 C-329.12057657 350.56123136 -309.77486082 367.92856202 -282.2734375 377.09570312 C-230.83985214 391.23818008 -173.50703591 370.42141758 -124.12896729 356.94467163 C-39.66841456 333.89420852 -39.66841456 333.89420852 4.08203125 333.75585938 C4.99026642 333.75191162 5.89850159 333.74796387 6.83425903 333.74389648 C19.43007511 333.71841206 31.39569267 334.4783098 43.82617188 336.62988281 C59.84131125 339.39998726 76.14783481 340.04569224 90.2734375 330.77929688 C108.7345378 317.45810754 114.62348975 297.86760294 118.28515625 276.35107422 C119.08704913 271.25752909 119.49808649 266.21939452 119.64453125 261.06835938 C119.68449219 259.91207031 119.72445312 258.75578125 119.765625 257.56445312 C120.63280504 207.82912719 106.74875286 156.34351844 85.75878906 111.45849609 C84.70325648 109.19432783 83.68109879 106.91815748 82.66796875 104.63476562 C71.43589811 79.63044836 56.37692886 55.3289215 37.65234375 35.22851562 C35.76965131 33.20297298 33.98716064 31.12131546 32.20703125 29.00585938 C21.44566317 16.77703201 7.77727197 7.78228621 -6.30859375 -0.19335938 C-9.15889377 -1.81949208 -11.96299192 -3.50327319 -14.76416016 -5.21166992 C-91.35870945 -51.77934858 -191.91013198 -70.99665985 -332.21875 8.11523438 Z " fill="#A0CEE1" transform="translate(750.35546875,335.931640625)"/>
<path d="M0 0 C1.76672873 1.12588243 3.5462122 2.23168953 5.32714844 3.33496094 C13.0029392 8.21955506 19.4434431 13.95529253 25.95996094 20.24902344 C26.67925781 20.91675781 27.39855469 21.58449219 28.13964844 22.27246094 C64.15812444 56.55510677 83.58950448 111.44252011 93.27246094 158.87402344 C93.49337402 159.95321045 93.49337402 159.95321045 93.71875 161.05419922 C96.17502799 173.84467724 97.31434638 186.52079111 97.27563477 199.53076172 C97.27246163 201.74854236 97.29611662 203.96499829 97.32128906 206.18261719 C97.40907516 225.96493427 93.48201054 246.82827412 79.83496094 261.99902344 C70.68801056 270.55911195 58.730965 273.70169208 46.52636719 273.51464844 C41.30752246 273.12595025 36.19198241 272.25993599 31.03417969 271.39355469 C24.35120772 270.2761788 17.7353724 269.53133225 10.95996094 269.24902344 C10.01121094 269.20777344 9.06246094 269.16652344 8.08496094 269.12402344 C-33.04474792 268.2671545 -73.70741961 280.8740941 -112.95617676 291.71655273 C-202.12273702 316.33674017 -202.12273702 316.33674017 -239.04003906 299.24902344 C-239.97074219 298.83007812 -240.90144531 298.41113281 -241.86035156 297.97949219 C-249.78890021 294.06039478 -255.8486029 288.43176376 -262.04003906 282.24902344 C-262.77222656 281.5284375 -263.50441406 280.80785156 -264.25878906 280.06542969 C-276.87055038 266.82808497 -284.63547837 248.24162134 -293.04003906 232.24902344 C-293.5759668 231.23066406 -294.11189453 230.21230469 -294.6640625 229.16308594 C-317.91689237 184.67179564 -338.04141589 132.70096594 -322.83398438 82.33447266 C-315.19792421 58.72537673 -301.39621437 36.9520622 -283.51660156 19.72558594 C-281.88048106 18.15136011 -281.88048106 18.15136011 -280.10253906 15.74902344 C-277.74976077 12.89717096 -275.15850416 10.64128088 -272.34863281 8.24902344 C-269.84856097 6.08314055 -267.45209758 3.82486857 -265.04003906 1.56152344 C-194.75811635 -62.31348367 -94.85896956 -53.08033108 0 0 Z M-199.04003906 -33.75097656 C-199.71019043 -33.54134277 -200.3803418 -33.33170898 -201.07080078 -33.11572266 C-224.66354951 -25.50156598 -244.5834918 -11.93041734 -263.04003906 4.24902344 C-263.86761719 4.96445312 -264.69519531 5.67988281 -265.54785156 6.41699219 C-296.91298159 34.00381447 -322.32248691 68.74455568 -325.20410156 111.69433594 C-327.83206267 166.88151912 -296.75702094 239.63781621 -260.04003906 280.24902344 C-259.50378906 280.87808594 -258.96753906 281.50714844 -258.41503906 282.15527344 C-245.32619038 296.55300699 -225.52719974 303.11004257 -206.6015625 304.41748047 C-168.86735035 306.17409845 -131.63354765 294.09226418 -95.68164062 284.11157227 C-52.79619972 272.24041311 -9.24728778 261.59391093 35.34277344 269.21899414 C49.21020911 271.5385578 61.63541206 270.75771092 73.67871094 262.96386719 C86.22113173 253.53557485 91.04473086 237.91068556 93.49267578 223.00537109 C100.96149519 162.96605268 78.18330941 93.617111 42.95996094 45.24902344 C42.56099609 44.69601562 42.16203125 44.14300781 41.75097656 43.57324219 C6.05969455 -5.50945482 -56.16646807 -30.91228084 -114.55566406 -40.14892578 C-142.74164827 -44.30799175 -171.86699039 -42.2844074 -199.04003906 -33.75097656 Z " fill="#A0CEE1" transform="translate(722.0400390625,368.7509765625)"/>
<path d="M0 0 C35.16626349 30.65498085 52.57630413 79.33071124 56.27734375 124.828125 C57.22791869 139.91661616 55.90243509 157.97574156 45.91796875 170.078125 C39.50991306 176.91338441 33.84910009 180.33038006 24.31640625 180.95703125 C20.00604616 181.07373775 16.0301956 180.65233594 11.796875 179.83984375 C-20.92981314 174.25144726 -53.12680499 183.87328771 -84.4510498 192.22351074 C-154.41827789 210.84609555 -154.41827789 210.84609555 -180.73828125 196.74609375 C-190.29692709 190.60303733 -197.24555004 182.77309839 -202.72265625 172.828125 C-203.61185827 171.25904606 -204.50119335 169.69004253 -205.390625 168.12109375 C-224.50346135 134.04997463 -246.04913907 93.51518956 -235.75390625 53.14453125 C-229.85067734 34.16028372 -220.21912986 19.3256735 -206.72265625 4.828125 C-205.98917969 4.03535156 -205.25570312 3.24257813 -204.5 2.42578125 C-149.40440322 -54.70620309 -59.47176638 -47.44089255 0 0 Z M-144.72265625 -31.171875 C-145.82891357 -30.85839111 -145.82891357 -30.85839111 -146.95751953 -30.53857422 C-162.737508 -25.87686043 -176.45312669 -18.13572692 -188.72265625 -7.171875 C-189.51542969 -6.48738281 -190.30820312 -5.80289063 -191.125 -5.09765625 C-193.70472458 -2.83569353 -196.2189442 -0.51775993 -198.72265625 1.828125 C-199.25793945 2.3240918 -199.79322266 2.82005859 -200.34472656 3.33105469 C-219.18695475 20.91784362 -233.58665842 42.78667144 -235.1015625 69.12890625 C-236.07545912 98.47272226 -224.69648246 124.11673064 -211.72265625 149.828125 C-211.22620605 150.81683594 -210.72975586 151.80554688 -210.21826172 152.82421875 C-202.93328498 167.41625907 -202.93328498 167.41625907 -193.72265625 180.828125 C-193.19671875 181.52679687 -192.67078125 182.22546875 -192.12890625 182.9453125 C-183.97281317 193.14042885 -171.57379002 199.19889359 -158.72265625 200.828125 C-129.43874524 202.72869207 -101.97707653 193.94419514 -74.02307129 186.44512939 C-44.93671556 178.64375051 -15.81804228 172.14150674 14.36914062 177.37329102 C23.02491056 178.72702669 30.85881268 178.22837752 38.40625 173.4921875 C47.74081479 166.23000237 51.1474177 155.24902369 52.80859375 143.9453125 C58.19102331 100.53928016 38.8825816 51.14702617 12.65234375 17.390625 C-10.19137921 -11.21652959 -47.81380153 -25.85503376 -82.72265625 -33.171875 C-84.51896484 -33.57019531 -84.51896484 -33.57019531 -86.3515625 -33.9765625 C-105.34627826 -37.44743672 -126.18619276 -36.42944615 -144.72265625 -31.171875 Z " fill="#A0CEE1" transform="translate(697.72265625,417.171875)"/>
<path d="M0 0 C20.17236737 19.05663908 30.52210564 51.02123678 31.328125 78.16796875 C31.08923946 86.75698962 29.65323735 95.58695421 23.953125 102.29296875 C18.93868426 106.92168328 14.96923708 108.53132719 8.11328125 108.4609375 C5.953125 108.29296875 5.953125 108.29296875 3.1875 107.8046875 C-19.2012197 104.26251083 -41.89043065 111.77347189 -63.3269043 117.52539062 C-79.16763218 121.74875824 -97.99911084 126.70594626 -113.25390625 118.0390625 C-122.25781141 111.7208346 -127.64418096 103.13702107 -132.546875 93.48046875 C-133.10930908 92.38404053 -133.67174316 91.2876123 -134.2512207 90.15795898 C-144.15559849 70.48511499 -152.53959529 49.38094939 -146.0703125 27.18359375 C-138.96410217 7.11261801 -122.66723598 -8.88265748 -104.046875 -18.70703125 C-70.23359481 -34.47051774 -27.8029637 -23.18682278 0 0 Z M-133.046875 9.29296875 C-142.86596192 22.12278616 -146.30305853 35.30812329 -145.046875 51.29296875 C-143.43773951 63.39519174 -138.36323119 74.42735787 -133.046875 85.29296875 C-132.64629883 86.11861328 -132.24572266 86.94425781 -131.83300781 87.79492188 C-122.49761634 106.95867628 -122.49761634 106.95867628 -105.046875 118.29296875 C-88.12617416 122.53002229 -70.43269173 116.48754059 -54.1328125 112.25 C-53.45313416 112.07346893 -52.77345581 111.89693787 -52.07318115 111.71505737 C-48.72668563 110.84361438 -45.3834583 109.96201546 -42.04492188 109.06054688 C-31.16328347 106.16896225 -20.41084144 103.90038006 -9.109375 104.10546875 C-8.40748047 104.10611328 -7.70558594 104.10675781 -6.98242188 104.10742188 C-2.90001002 104.14179204 0.94283853 104.56536403 4.953125 105.29296875 C10.68293456 105.78955225 15.05015291 105.63590426 19.953125 102.29296875 C26.23300484 96.59726378 27.44851144 89.31448906 28.2734375 81.10546875 C29.18127371 55.44396519 18.8438823 28.15641538 2.953125 8.29296875 C2.21835937 7.31263672 2.21835937 7.31263672 1.46875 6.3125 C-11.25869676 -9.88281849 -38.02205473 -19.97026629 -57.9140625 -22.4921875 C-89.31609381 -24.64569339 -112.09973129 -14.51776262 -133.046875 9.29296875 Z " fill="#A0CEE1" transform="translate(665.046875,451.70703125)"/>
</svg>
